<svg width="181" height="20" viewBox="0 0 181 20" fill="none" xmlns="http://www.w3.org/2000/svg">
<path d="M3.79816 16.7331C4.25586 16.7331 4.65043 16.6779 4.98187 16.5674C5.32909 16.4412 5.62107 16.2597 5.85781 16.0229C6.03142 15.8493 6.17346 15.6362 6.28394 15.3837C6.4102 15.1312 6.5049 14.8313 6.56803 14.4841C6.64694 14.1211 6.6864 13.695 6.6864 13.2057C6.6864 12.4639 6.6864 11.7221 6.6864 10.9803C6.6864 10.2228 6.6864 9.45731 6.6864 8.68396C6.6864 7.89482 6.6864 7.09779 6.6864 6.29287C6.6864 5.48795 6.6864 4.65147 6.6864 3.78342L7.08886 4.77773L6.33129 4.02016L7.37295 4.44629C6.82055 4.44629 6.29972 4.44629 5.81046 4.44629C5.33698 4.44629 4.86349 4.44629 4.39001 4.44629C3.93231 4.44629 3.45883 4.44629 2.96957 4.44629C2.49609 4.44629 1.98315 4.44629 1.43075 4.44629C1.3834 4.44629 1.33606 4.4384 1.28871 4.42262C1.25714 4.39105 1.22558 4.35949 1.19401 4.32792C1.17823 4.28058 1.17034 4.23323 1.17034 4.18588C1.17034 3.83866 1.17034 3.50722 1.17034 3.19157C1.17034 2.86013 1.17034 2.5208 1.17034 2.17358C1.86478 2.17358 2.52765 2.17358 3.15896 2.17358C3.80605 2.17358 4.42947 2.17358 5.02921 2.17358C5.64474 2.17358 6.26816 2.17358 6.89947 2.17358C7.54656 2.17358 8.22522 2.17358 8.93544 2.17358C8.98279 2.17358 9.02224 2.18936 9.05381 2.22093C9.10116 2.23671 9.13272 2.26828 9.1485 2.31563C9.18007 2.34719 9.19585 2.38665 9.19585 2.434C9.19585 3.33361 9.19585 4.23323 9.19585 5.13284C9.19585 6.03246 9.19585 6.93997 9.19585 7.85536C9.19585 8.77076 9.19585 9.68616 9.19585 10.6016C9.19585 11.5012 9.19585 12.4166 9.19585 13.3478C9.19585 14.2789 9.07748 15.1154 8.84074 15.8572C8.61978 16.5832 8.28045 17.1987 7.82276 17.7038C7.38084 18.193 6.82055 18.5639 6.1419 18.8165C5.47902 19.0848 4.69778 19.2189 3.79816 19.2189C3.24577 19.2189 2.72494 19.1716 2.23567 19.0769C1.76219 18.998 1.35184 18.8875 1.00462 18.7454C0.673181 18.6034 0.428549 18.4614 0.270722 18.3193C0.254939 18.2877 0.239156 18.2641 0.223374 18.2483C0.207591 18.2167 0.191808 18.1852 0.176025 18.1536C0.176025 18.1062 0.176025 18.0589 0.176025 18.0115C0.176025 17.6801 0.176025 17.3329 0.176025 16.9699C0.176025 16.6069 0.176025 16.2439 0.176025 15.8809H0.554811C0.917814 16.0545 1.26503 16.2123 1.59647 16.3544C1.94369 16.4806 2.2988 16.5753 2.6618 16.6384C3.02481 16.7016 3.40359 16.7331 3.79816 16.7331Z" fill="black"/>
<path d="M18.0026 5.84307C18.9969 5.84307 19.8808 6.04824 20.6541 6.45859C21.4432 6.85316 22.0667 7.44501 22.5244 8.23415C22.9821 9.0075 23.2109 9.97814 23.2109 11.1461V12.969C23.2109 13.0163 23.1951 13.0637 23.1636 13.111C23.1478 13.1426 23.1241 13.1663 23.0925 13.182C23.061 13.1978 23.0136 13.2057 22.9505 13.2057H17.032C16.7795 13.2057 16.519 13.2057 16.2507 13.2057C15.9824 13.2057 15.7141 13.2057 15.4458 13.2057H14.6409L14.4278 11.5248H20.7488C20.7488 11.4459 20.7488 11.3749 20.7488 11.3118C20.7488 11.2329 20.7488 11.1618 20.7488 11.0987C20.7488 10.5305 20.6857 10.0413 20.5594 9.63092C20.4489 9.22057 20.2595 8.89702 19.9912 8.66028C19.7703 8.42354 19.4941 8.25782 19.1626 8.16313C18.8312 8.05265 18.4445 7.99741 18.0026 7.99741C17.0714 7.99741 16.3533 8.24204 15.8483 8.7313C15.359 9.22057 15.1144 10.0255 15.1144 11.1461V13.7502C15.1144 14.2237 15.1775 14.6419 15.3038 15.0049C15.43 15.3679 15.6115 15.6757 15.8483 15.9282C16.1481 16.2281 16.5348 16.4491 17.0083 16.5911C17.4818 16.7331 18.0421 16.8042 18.6892 16.8042C19.2731 16.8042 19.7782 16.7726 20.2043 16.7095C20.6462 16.6463 21.0566 16.5595 21.4354 16.4491C21.8141 16.3228 22.1929 16.1729 22.5717 15.9992H22.9742C22.9742 16.2991 22.9742 16.6069 22.9742 16.9225C22.9742 17.2382 22.9742 17.5538 22.9742 17.8695C22.9742 17.9011 22.9663 17.9326 22.9505 17.9642C22.9347 17.9958 22.911 18.0273 22.8795 18.0589C22.7374 18.2009 22.4533 18.3509 22.0272 18.5087C21.6011 18.6507 21.0881 18.7691 20.4884 18.8638C19.9044 18.9585 19.2731 19.0059 18.5945 19.0059C17.6633 19.0059 16.8189 18.8954 16.0613 18.6744C15.3195 18.4377 14.6882 18.0984 14.1674 17.6564C13.6624 17.2145 13.2757 16.67 13.0074 16.0229C12.7391 15.36 12.6049 14.6025 12.6049 13.7502V11.1934C12.6049 10.3254 12.7391 9.5599 13.0074 8.89702C13.2757 8.21837 13.6545 7.65808 14.1437 7.21616C14.633 6.75846 15.2091 6.41913 15.8719 6.19818C16.5348 5.96144 17.245 5.84307 18.0026 5.84307Z" fill="black"/>
<path d="M31.3692 16.5438C32.4424 16.5438 33.2 16.4017 33.6419 16.1176C34.0839 15.8177 34.3048 15.4469 34.3048 15.0049C34.3048 14.7524 34.2496 14.5315 34.1391 14.3421C34.0286 14.1527 33.8392 13.9948 33.5709 13.8686C33.3026 13.7265 32.9396 13.6161 32.4819 13.5371L30.1145 13.111C29.3411 12.9532 28.7019 12.7322 28.1969 12.4481C27.7076 12.1483 27.3446 11.7774 27.1079 11.3355C26.8711 10.8935 26.7528 10.3806 26.7528 9.79664C26.7528 9.21268 26.8711 8.68396 27.1079 8.21047C27.3604 7.73699 27.7234 7.32664 28.1969 6.97942C28.6704 6.6322 29.2543 6.3639 29.9488 6.1745C30.6432 5.98511 31.4481 5.89041 32.3635 5.89041C32.9159 5.89041 33.4131 5.91409 33.855 5.96144C34.2969 6.00878 34.6836 6.07192 35.015 6.15083C35.3465 6.22974 35.6227 6.31655 35.8436 6.41124C35.9541 6.44281 36.0251 6.47437 36.0567 6.50594C36.104 6.53751 36.1277 6.58485 36.1277 6.64798C36.1435 6.69533 36.1514 6.76636 36.1514 6.86105C36.1514 7.12936 36.1514 7.4529 36.1514 7.83169C36.1514 8.19469 36.1514 8.54191 36.1514 8.87335H35.7726C35.378 8.7313 34.9914 8.62082 34.6126 8.54191C34.2338 8.44722 33.8392 8.38408 33.4289 8.35252C33.0185 8.32095 32.5687 8.30517 32.0794 8.30517C31.385 8.30517 30.8326 8.3683 30.4223 8.49456C30.0119 8.62082 29.712 8.79444 29.5226 9.01539C29.349 9.22057 29.2622 9.45731 29.2622 9.72562C29.2622 9.96236 29.3096 10.1675 29.4043 10.3411C29.5148 10.499 29.6963 10.6331 29.9488 10.7436C30.2171 10.8541 30.588 10.9567 31.0615 11.0514L33.3815 11.5012C34.0917 11.6117 34.6994 11.8247 35.2044 12.1404C35.7095 12.4402 36.0962 12.8269 36.3645 13.3004C36.6485 13.7739 36.7906 14.3342 36.7906 14.9813C36.7906 15.7862 36.5775 16.4885 36.1514 17.0883C35.7253 17.688 35.1097 18.1536 34.3048 18.485C33.4999 18.8007 32.5293 18.9585 31.3929 18.9585C30.8247 18.9585 30.296 18.9348 29.8067 18.8875C29.3175 18.8401 28.8677 18.777 28.4573 18.6981C28.0627 18.6034 27.7076 18.5008 27.392 18.3903C27.0763 18.2641 26.8001 18.1299 26.5634 17.9879C26.5003 17.9563 26.4529 17.9247 26.4213 17.8932C26.4056 17.8458 26.3977 17.7748 26.3977 17.6801C26.3977 17.3802 26.3977 17.033 26.3977 16.6384C26.3977 16.2439 26.3977 15.8651 26.3977 15.5021H26.7765C27.1237 15.6915 27.463 15.8572 27.7944 15.9992C28.1417 16.1255 28.4968 16.2281 28.8598 16.307C29.2228 16.3859 29.6095 16.4491 30.0198 16.4964C30.4459 16.528 30.8957 16.5438 31.3692 16.5438Z" fill="black"/>
<path d="M44.3853 16.5438C45.4586 16.5438 46.2161 16.4017 46.6581 16.1176C47.1 15.8177 47.3209 15.4469 47.3209 15.0049C47.3209 14.7524 47.2657 14.5315 47.1552 14.3421C47.0447 14.1527 46.8553 13.9948 46.587 13.8686C46.3187 13.7265 45.9557 13.6161 45.498 13.5371L43.1306 13.111C42.3573 12.9532 41.7181 12.7322 41.213 12.4481C40.7238 12.1483 40.3608 11.7774 40.124 11.3355C39.8873 10.8935 39.7689 10.3806 39.7689 9.79664C39.7689 9.21268 39.8873 8.68396 40.124 8.21047C40.3765 7.73699 40.7395 7.32664 41.213 6.97942C41.6865 6.6322 42.2705 6.3639 42.9649 6.1745C43.6593 5.98511 44.4643 5.89041 45.3797 5.89041C45.9321 5.89041 46.4292 5.91409 46.8711 5.96144C47.313 6.00878 47.6997 6.07192 48.0312 6.15083C48.3626 6.22974 48.6388 6.31655 48.8598 6.41124C48.9702 6.44281 49.0413 6.47437 49.0728 6.50594C49.1202 6.53751 49.1438 6.58485 49.1438 6.64798C49.1596 6.69533 49.1675 6.76636 49.1675 6.86105C49.1675 7.12936 49.1675 7.4529 49.1675 7.83169C49.1675 8.19469 49.1675 8.54191 49.1675 8.87335H48.7887C48.3942 8.7313 48.0075 8.62082 47.6287 8.54191C47.2499 8.44722 46.8553 8.38408 46.445 8.35252C46.0346 8.32095 45.5848 8.30517 45.0956 8.30517C44.4011 8.30517 43.8487 8.3683 43.4384 8.49456C43.028 8.62082 42.7282 8.79444 42.5388 9.01539C42.3652 9.22057 42.2784 9.45731 42.2784 9.72562C42.2784 9.96236 42.3257 10.1675 42.4204 10.3411C42.5309 10.499 42.7124 10.6331 42.9649 10.7436C43.2332 10.8541 43.6041 10.9567 44.0776 11.0514L46.3976 11.5012C47.1079 11.6117 47.7155 11.8247 48.2205 12.1404C48.7256 12.4402 49.1123 12.8269 49.3806 13.3004C49.6647 13.7739 49.8067 14.3342 49.8067 14.9813C49.8067 15.7862 49.5936 16.4885 49.1675 17.0883C48.7414 17.688 48.1259 18.1536 47.3209 18.485C46.516 18.8007 45.5454 18.9585 44.409 18.9585C43.8408 18.9585 43.3121 18.9348 42.8229 18.8875C42.3336 18.8401 41.8838 18.777 41.4734 18.6981C41.0789 18.6034 40.7238 18.5008 40.4081 18.3903C40.0924 18.2641 39.8162 18.1299 39.5795 17.9879C39.5164 17.9563 39.469 17.9247 39.4375 17.8932C39.4217 17.8458 39.4138 17.7748 39.4138 17.6801C39.4138 17.3802 39.4138 17.033 39.4138 16.6384C39.4138 16.2439 39.4138 15.8651 39.4138 15.5021H39.7926C40.1398 15.6915 40.4791 15.8572 40.8106 15.9992C41.1578 16.1255 41.5129 16.2281 41.8759 16.307C42.2389 16.3859 42.6256 16.4491 43.0359 16.4964C43.4621 16.528 43.9119 16.5438 44.3853 16.5438Z" fill="black"/>
<path d="M54.3712 18.485C54.3712 17.9484 54.3712 17.3487 54.3712 16.6858C54.3712 16.0071 54.3712 15.2969 54.3712 14.5551C54.3712 13.8133 54.3712 13.0716 54.3712 12.3298C54.3712 11.588 54.3712 10.8778 54.3712 10.1991C54.3712 9.52044 54.3712 8.91281 54.3712 8.37619H54.1108C53.9845 8.37619 53.8504 8.37619 53.7083 8.37619C53.5663 8.37619 53.4163 8.37619 53.2585 8.37619C53.1165 8.37619 52.9744 8.37619 52.8324 8.37619C52.6903 8.37619 52.5483 8.37619 52.4062 8.37619C52.3273 8.37619 52.2642 8.35252 52.2168 8.30517C52.1695 8.25782 52.1458 8.19469 52.1458 8.11578C52.1458 7.78434 52.1458 7.4529 52.1458 7.12147C52.1458 6.77425 52.1458 6.43492 52.1458 6.10348C52.4141 6.10348 52.6982 6.10348 52.9981 6.10348C53.3137 6.10348 53.6373 6.10348 53.9687 6.10348C54.3002 6.10348 54.6237 6.10348 54.9394 6.10348C55.2708 6.10348 55.5786 6.10348 55.8627 6.10348C56.1625 6.10348 56.415 6.10348 56.6202 6.10348C56.6834 6.10348 56.7307 6.11926 56.7623 6.15083C56.7938 6.16661 56.8175 6.19818 56.8333 6.24553C56.8649 6.27709 56.8806 6.31655 56.8806 6.3639C56.8806 7.15303 56.8806 7.98162 56.8806 8.84967C56.8806 9.70194 56.8806 10.57 56.8806 11.4538C56.8806 12.3377 56.8806 13.2057 56.8806 14.058C56.8806 14.9102 56.8806 15.7309 56.8806 16.5201C56.8806 16.7568 56.8806 17.0015 56.8806 17.254C56.8806 17.5065 56.8806 17.759 56.8806 18.0115C56.8806 18.2483 56.8806 18.4929 56.8806 18.7454C56.4861 18.7454 56.1152 18.7454 55.768 18.7454C55.4207 18.7454 55.042 18.7454 54.6316 18.7454C54.5685 18.7454 54.5053 18.7218 54.4422 18.6744C54.3949 18.6271 54.3712 18.5639 54.3712 18.485ZM53.8977 0.255981C54.1502 0.255981 54.4028 0.255981 54.6553 0.255981C54.9236 0.255981 55.184 0.255981 55.4365 0.255981C55.7048 0.255981 55.9652 0.255981 56.2178 0.255981C56.4861 0.255981 56.7465 0.255981 56.999 0.255981C57.0779 0.255981 57.1411 0.279655 57.1884 0.327003C57.2358 0.374351 57.2594 0.437482 57.2594 0.516396V3.09687C57.0069 3.09687 56.7465 3.09687 56.4782 3.09687C56.2257 3.09687 55.9652 3.09687 55.6969 3.09687C55.4444 3.09687 55.184 3.09687 54.9157 3.09687C54.6632 3.09687 54.4106 3.09687 54.1581 3.09687C54.0792 3.09687 54.0161 3.0732 53.9687 3.02585C53.9214 2.9785 53.8977 2.91537 53.8977 2.83646V0.255981Z" fill="black"/>
<path d="M66.6251 5.84307C67.2249 5.84307 67.7457 5.89041 68.1876 5.98511C68.6453 6.06402 69.0083 6.16661 69.2766 6.29287C69.5607 6.40335 69.7501 6.50594 69.8448 6.60064C69.8921 6.64798 69.9158 6.68744 69.9158 6.71901C69.9316 6.75057 69.9395 6.79792 69.9395 6.86105C69.9395 7.19249 69.9395 7.53182 69.9395 7.87904C69.9395 8.22626 69.9395 8.57348 69.9395 8.9207H69.537C69.1582 8.71552 68.7321 8.5498 68.2586 8.42354C67.7851 8.2815 67.2328 8.21047 66.6014 8.21047C65.9544 8.21047 65.3941 8.33674 64.9206 8.58926C64.4471 8.826 64.0841 9.19689 63.8316 9.70194C63.5791 10.207 63.4528 10.8383 63.4528 11.5959V13.3951C63.4528 13.9475 63.5238 14.4289 63.6659 14.8392C63.8079 15.2496 64.021 15.5889 64.3051 15.8572C64.5734 16.1255 64.8969 16.3228 65.2757 16.4491C65.6703 16.5753 66.1122 16.6384 66.6014 16.6384C67.0434 16.6384 67.43 16.6148 67.7615 16.5674C68.1087 16.5043 68.4243 16.4254 68.7084 16.3307C69.0083 16.236 69.2845 16.1255 69.537 15.9992H69.9395C69.9395 16.3465 69.9395 16.6937 69.9395 17.0409C69.9395 17.3881 69.9395 17.7353 69.9395 18.0826C69.9395 18.1141 69.9316 18.1457 69.9158 18.1773C69.9158 18.2088 69.9 18.2404 69.8685 18.272C69.7738 18.3667 69.5844 18.4771 69.3003 18.6034C69.032 18.7139 68.669 18.8086 68.2113 18.8875C67.7694 18.9664 67.2406 19.0059 66.6251 19.0059C65.7097 19.0059 64.8969 18.8875 64.1867 18.6507C63.4765 18.414 62.8688 18.0589 62.3638 17.5854C61.8745 17.1119 61.5036 16.5359 61.2511 15.8572C60.9986 15.1628 60.8723 14.3815 60.8723 13.5135V11.5248C60.8723 10.3411 61.1169 9.33105 61.6062 8.49456C62.1113 7.6423 62.7899 6.98731 63.6422 6.52961C64.5102 6.07192 65.5045 5.84307 66.6251 5.84307Z" fill="black"/>
<path d="M83.0549 10.5069C83.0549 10.933 83.0549 11.3591 83.0549 11.7853C83.0549 12.1956 83.0549 12.6217 83.0549 13.0637C83.0549 13.4898 83.0549 13.9159 83.0549 14.3421C83.0549 14.7682 83.0549 15.1785 83.0549 15.5731C83.0549 15.7625 83.0707 15.9203 83.1023 16.0466C83.1496 16.1729 83.2049 16.2754 83.268 16.3544C83.3469 16.4175 83.4337 16.4648 83.5284 16.4964C83.6389 16.528 83.7652 16.5438 83.9072 16.5438C83.9388 16.5438 83.9703 16.5438 84.0019 16.5438C84.0492 16.5438 84.0966 16.5438 84.1439 16.5438H84.5227C84.5227 16.8752 84.5227 17.1987 84.5227 17.5144C84.5227 17.83 84.5227 18.1536 84.5227 18.485C84.5227 18.5639 84.4991 18.6271 84.4517 18.6744C84.4044 18.7218 84.3412 18.7454 84.2623 18.7454C84.1834 18.7454 84.0335 18.7454 83.8125 18.7454C83.6073 18.7454 83.4258 18.7454 83.268 18.7454C82.8577 18.7454 82.4868 18.6902 82.1553 18.5797C81.8397 18.4535 81.5556 18.272 81.303 18.0352C81.0663 17.7985 80.8769 17.5144 80.7349 17.183C80.6086 16.8357 80.5455 16.4412 80.5455 15.9992C80.5455 15.4626 80.5455 14.9181 80.5455 14.3657C80.5455 13.7976 80.5455 13.2452 80.5455 12.7086C80.5455 12.456 80.5455 12.2035 80.5455 11.951C80.5455 11.6985 80.5455 11.4459 80.5455 11.1934C80.5455 10.9409 80.5455 10.6884 80.5455 10.4358C80.5455 9.86766 80.4587 9.42574 80.2851 9.11009C80.1115 8.77865 79.8274 8.5498 79.4328 8.42354C79.0382 8.2815 78.4937 8.21047 77.7993 8.21047C77.3416 8.21047 76.8997 8.23415 76.4735 8.2815C76.0632 8.32884 75.6528 8.39987 75.2425 8.49456C74.8479 8.58926 74.4455 8.70763 74.0351 8.84967H73.6326C73.6326 8.51824 73.6326 8.1868 73.6326 7.85536C73.6326 7.52393 73.6326 7.20038 73.6326 6.88473C73.6326 6.82159 73.6405 6.77425 73.6563 6.74268C73.6721 6.71112 73.6879 6.68744 73.7037 6.67166C73.7984 6.57696 74.0509 6.46648 74.4612 6.34022C74.8716 6.21396 75.3687 6.10348 75.9527 6.00878C76.5525 5.91409 77.168 5.86674 77.7993 5.86674C78.7147 5.86674 79.5038 5.95354 80.1667 6.12715C80.8296 6.30076 81.3741 6.57696 81.8002 6.95575C82.2263 7.31875 82.542 7.79223 82.7472 8.37619C82.9523 8.96015 83.0549 9.67038 83.0549 10.5069ZM75.2425 15.3127C75.2425 15.7704 75.3766 16.1255 75.6449 16.378C75.9132 16.6148 76.3157 16.7331 76.8523 16.7331C77.3574 16.7331 77.8309 16.67 78.2728 16.5438C78.7305 16.4175 79.1803 16.2044 79.6222 15.9046C80.0641 15.6047 80.5218 15.1943 80.9953 14.6735V16.7331H80.2851C80.0483 17.2066 79.7327 17.617 79.3381 17.9642C78.9593 18.2956 78.5174 18.5482 78.0124 18.7218C77.5073 18.8954 76.947 18.9822 76.3315 18.9822C75.5897 18.9822 74.9505 18.848 74.4139 18.5797C73.8773 18.2956 73.459 17.9011 73.1592 17.396C72.8751 16.891 72.733 16.2912 72.733 15.5968V14.8155C72.733 14.2947 72.8198 13.8291 72.9934 13.4188C73.1671 13.0084 73.4117 12.6612 73.7273 12.3771C74.0588 12.0772 74.4534 11.8484 74.9111 11.6906C75.3687 11.5327 75.8817 11.4538 76.4499 11.4538C77.0023 11.4538 77.5389 11.4538 78.0597 11.4538C78.5805 11.4538 79.0856 11.4538 79.5748 11.4538C80.0799 11.4538 80.577 11.4538 81.0663 11.4538C81.1926 11.4538 81.2873 11.5485 81.3504 11.7379C81.4293 11.9273 81.4767 12.1562 81.4924 12.4245C81.5082 12.677 81.5161 12.9137 81.5161 13.1347C80.9479 13.1347 80.4192 13.1347 79.93 13.1347C79.4407 13.1347 78.9435 13.1347 78.4385 13.1347C77.9492 13.1347 77.4205 13.1347 76.8523 13.1347C76.5682 13.1347 76.3236 13.1663 76.1184 13.2294C75.929 13.2925 75.7633 13.3951 75.6213 13.5371C75.5108 13.6634 75.4161 13.8133 75.3372 13.987C75.2741 14.1448 75.2425 14.3342 75.2425 14.5551V15.3127Z" fill="black"/>
<path d="M96.8431 18.7454C96.48 18.7454 96.1092 18.7454 95.7304 18.7454C95.3674 18.7454 94.9965 18.7454 94.6177 18.7454C94.5703 18.7454 94.523 18.7376 94.4756 18.7218C94.4441 18.6902 94.4125 18.6586 94.381 18.6271C94.3652 18.5797 94.3573 18.5324 94.3573 18.485C94.3573 17.3171 94.3573 16.1571 94.3573 15.0049C94.3573 13.837 94.3573 12.677 94.3573 11.5248C94.3573 10.3569 94.3573 9.189 94.3573 8.02108C94.3573 6.85316 94.3573 5.69313 94.3573 4.54099C94.3573 4.14642 94.3573 3.75186 94.3573 3.35729C94.3573 2.96272 94.3573 2.56815 94.3573 2.17358C94.6098 2.17358 94.9412 2.17358 95.3516 2.17358C95.7777 2.17358 96.1881 2.17358 96.5826 2.17358C96.993 2.17358 97.3165 2.17358 97.5533 2.17358C97.6322 2.17358 97.6953 2.18936 97.7427 2.22093C97.8058 2.23671 97.861 2.27617 97.9084 2.3393C97.9557 2.40243 98.0031 2.50502 98.0504 2.64706C98.3345 3.29416 98.6107 3.95703 98.879 4.63569C99.1631 5.29856 99.4393 5.96933 99.7076 6.64798C99.9917 7.32664 100.268 8.01319 100.536 8.70763C100.82 9.40207 101.096 10.1123 101.365 10.8383C101.649 11.5485 101.941 12.2745 102.241 13.0163L101.152 11.7853H102.785L101.673 13.0163C101.972 12.2587 102.264 11.5091 102.549 10.7673C102.848 10.0255 103.14 9.29159 103.424 8.56559C103.709 7.83958 103.993 7.12147 104.277 6.41124C104.561 5.68524 104.845 4.97502 105.129 4.28058C105.413 3.57035 105.697 2.86802 105.981 2.17358C106.234 2.17358 106.573 2.17358 106.999 2.17358C107.425 2.17358 107.852 2.17358 108.278 2.17358C108.704 2.17358 109.043 2.17358 109.296 2.17358C109.343 2.17358 109.382 2.18936 109.414 2.22093C109.461 2.23671 109.493 2.26828 109.509 2.31563C109.54 2.34719 109.556 2.38665 109.556 2.434C109.556 2.90748 109.556 3.46777 109.556 4.11486C109.556 4.76195 109.556 5.48006 109.556 6.2692C109.556 7.04255 109.556 7.86325 109.556 8.7313C109.556 9.58357 109.556 10.4516 109.556 11.3355C109.556 12.2035 109.556 13.0716 109.556 13.9396C109.556 14.7919 109.556 15.6047 109.556 16.378C109.556 16.6306 109.556 16.891 109.556 17.1593C109.556 17.4276 109.556 17.6959 109.556 17.9642C109.556 18.2167 109.556 18.4771 109.556 18.7454C109.161 18.7454 108.775 18.7454 108.396 18.7454C108.017 18.7454 107.654 18.7454 107.307 18.7454C107.26 18.7454 107.212 18.7376 107.165 18.7218C107.133 18.6902 107.102 18.6586 107.07 18.6271C107.054 18.5797 107.047 18.5324 107.047 18.485C107.047 18.122 107.047 17.7669 107.047 17.4197C107.047 17.0567 107.047 16.7016 107.047 16.3544C107.047 15.9914 107.047 15.6362 107.047 15.289C107.047 14.784 107.047 14.2868 107.047 13.7976C107.062 13.2925 107.07 12.7875 107.07 12.2824C107.086 11.7774 107.102 11.2565 107.118 10.7199C107.149 10.1833 107.181 9.63092 107.212 9.06274C107.26 8.49456 107.307 7.89482 107.354 7.26351C107.402 6.61642 107.449 5.93776 107.496 5.22754L107.97 5.91409H106.36L107.283 5.18019C107.015 5.85885 106.723 6.56118 106.407 7.28718C106.108 7.99741 105.808 8.72341 105.508 9.4652C105.208 10.207 104.908 10.9409 104.608 11.6669C104.308 12.3929 104.016 13.0952 103.732 13.7739C103.448 14.4525 103.18 15.0996 102.927 15.7152C102.627 15.7152 102.328 15.7152 102.028 15.7152C101.728 15.7152 101.42 15.7152 101.104 15.7152C101.057 15.7152 101.01 15.7073 100.962 15.6915C100.915 15.6599 100.868 15.5968 100.82 15.5021C100.647 15.0444 100.426 14.5078 100.157 13.8923C99.9049 13.2767 99.6366 12.6139 99.3525 11.9036C99.0684 11.1776 98.7685 10.4358 98.4529 9.67827C98.1372 8.90491 97.8216 8.14734 97.5059 7.40556C97.2061 6.64798 96.9141 5.92198 96.63 5.22754L97.5533 5.91409H95.9671L96.3696 5.20387C96.4327 5.89831 96.4879 6.56907 96.5353 7.21616C96.5984 7.84747 96.6458 8.44722 96.6773 9.01539C96.7247 9.58357 96.7562 10.136 96.772 10.6726C96.7878 11.2092 96.8036 11.7379 96.8194 12.2587C96.8352 12.7638 96.8431 13.2688 96.8431 13.7739C96.8431 14.2631 96.8431 14.7682 96.8431 15.289C96.8431 15.8572 96.8431 16.4333 96.8431 17.0172C96.8431 17.5854 96.8431 18.1615 96.8431 18.7454Z" fill="black"/>
<path d="M118.802 5.84307C119.797 5.84307 120.681 6.04824 121.454 6.45859C122.243 6.85316 122.866 7.44501 123.324 8.23415C123.782 9.0075 124.011 9.97814 124.011 11.1461V12.969C124.011 13.0163 123.995 13.0637 123.963 13.111C123.948 13.1426 123.924 13.1663 123.892 13.182C123.861 13.1978 123.813 13.2057 123.75 13.2057H117.832C117.579 13.2057 117.319 13.2057 117.051 13.2057C116.782 13.2057 116.514 13.2057 116.246 13.2057H115.441L115.228 11.5248H121.549C121.549 11.4459 121.549 11.3749 121.549 11.3118C121.549 11.2329 121.549 11.1618 121.549 11.0987C121.549 10.5305 121.485 10.0413 121.359 9.63092C121.249 9.22057 121.059 8.89702 120.791 8.66028C120.57 8.42354 120.294 8.25782 119.962 8.16313C119.631 8.05265 119.244 7.99741 118.802 7.99741C117.871 7.99741 117.153 8.24204 116.648 8.7313C116.159 9.22057 115.914 10.0255 115.914 11.1461V13.7502C115.914 14.2237 115.977 14.6419 116.104 15.0049C116.23 15.3679 116.411 15.6757 116.648 15.9282C116.948 16.2281 117.335 16.4491 117.808 16.5911C118.282 16.7331 118.842 16.8042 119.489 16.8042C120.073 16.8042 120.578 16.7726 121.004 16.7095C121.446 16.6463 121.856 16.5595 122.235 16.4491C122.614 16.3228 122.993 16.1729 123.372 15.9992H123.774C123.774 16.2991 123.774 16.6069 123.774 16.9225C123.774 17.2382 123.774 17.5538 123.774 17.8695C123.774 17.9011 123.766 17.9326 123.75 17.9642C123.735 17.9958 123.711 18.0273 123.679 18.0589C123.537 18.2009 123.253 18.3509 122.827 18.5087C122.401 18.6507 121.888 18.7691 121.288 18.8638C120.704 18.9585 120.073 19.0059 119.394 19.0059C118.463 19.0059 117.619 18.8954 116.861 18.6744C116.119 18.4377 115.488 18.0984 114.967 17.6564C114.462 17.2145 114.076 16.67 113.807 16.0229C113.539 15.36 113.405 14.6025 113.405 13.7502V11.1934C113.405 10.3254 113.539 9.5599 113.807 8.89702C114.076 8.21837 114.454 7.65808 114.944 7.21616C115.433 6.75846 116.009 6.41913 116.672 6.19818C117.335 5.96144 118.045 5.84307 118.802 5.84307Z" fill="black"/>
<path d="M138.159 18.7454C137.764 18.7454 137.393 18.7454 137.046 18.7454C136.699 18.7454 136.32 18.7454 135.91 18.7454C135.862 18.7454 135.815 18.7376 135.768 18.7218C135.736 18.6902 135.704 18.6586 135.673 18.6271C135.657 18.5955 135.649 18.5482 135.649 18.485C135.649 17.5381 135.649 16.5911 135.649 15.6441C135.649 14.6814 135.649 13.7265 135.649 12.7796C135.649 11.8326 135.649 10.8856 135.649 9.93868C135.649 9.3705 135.515 8.95226 135.247 8.68396C134.978 8.39987 134.584 8.25782 134.063 8.25782C133.763 8.25782 133.44 8.30517 133.092 8.39987C132.761 8.49456 132.422 8.6445 132.074 8.84967C131.743 9.03907 131.404 9.2837 131.056 9.58357C130.725 9.86766 130.393 10.2149 130.062 10.6252V8.1868H130.82C131.167 7.71332 131.546 7.30297 131.956 6.95575C132.366 6.60853 132.808 6.34022 133.282 6.15083C133.771 5.94565 134.292 5.84307 134.844 5.84307C135.365 5.84307 135.831 5.92987 136.241 6.10348C136.651 6.26131 136.999 6.50594 137.283 6.83738C137.567 7.15303 137.78 7.53182 137.922 7.97373C138.08 8.41565 138.159 8.89702 138.159 9.41785C138.159 10.1754 138.159 10.9409 138.159 11.7142C138.159 12.4876 138.159 13.2609 138.159 14.0343C138.159 14.7919 138.159 15.5573 138.159 16.3307C138.159 16.741 138.159 17.1514 138.159 17.5617C138.159 17.9563 138.159 18.3509 138.159 18.7454ZM130.441 18.7454C130.173 18.7454 129.92 18.7454 129.683 18.7454C129.447 18.7454 129.202 18.7454 128.949 18.7454C128.697 18.7454 128.444 18.7454 128.192 18.7454C128.144 18.7454 128.105 18.7454 128.073 18.7454C128.042 18.7297 128.01 18.7139 127.979 18.6981C127.963 18.6665 127.947 18.635 127.931 18.6034C127.931 18.5718 127.931 18.5324 127.931 18.485C127.931 17.6485 127.931 16.8121 127.931 15.9756C127.931 15.1233 127.931 14.2868 127.931 13.4661C127.931 12.6296 127.931 11.7932 127.931 10.9567C127.931 10.1202 127.931 9.2837 127.931 8.44722C127.931 7.95795 127.931 7.51603 127.931 7.12147C127.931 6.71112 127.931 6.37179 127.931 6.10348C128.215 6.10348 128.484 6.10348 128.736 6.10348C128.989 6.10348 129.233 6.10348 129.47 6.10348C129.707 6.10348 129.944 6.10348 130.18 6.10348C130.244 6.10348 130.291 6.11926 130.322 6.15083C130.354 6.16661 130.378 6.19029 130.393 6.22185C130.425 6.25342 130.441 6.30077 130.441 6.3639C130.441 7.73699 130.441 9.11009 130.441 10.4832C130.441 11.8563 130.441 13.2373 130.441 14.6262C130.441 15.9992 130.441 17.3723 130.441 18.7454Z" fill="black"/>
<path d="M145.654 5.84307C146.206 5.84307 146.704 5.92987 147.145 6.10348C147.587 6.26131 147.982 6.49805 148.329 6.8137C148.692 7.11358 149.008 7.48447 149.276 7.92639H150.01V10.5779C149.473 9.78875 148.897 9.20479 148.282 8.826C147.666 8.44722 147.035 8.25782 146.388 8.25782C145.914 8.25782 145.504 8.36041 145.157 8.56559C144.81 8.77076 144.541 9.07852 144.352 9.48887C144.163 9.88344 144.068 10.3727 144.068 10.9567V13.9633C144.068 14.421 144.123 14.8234 144.234 15.1707C144.36 15.5021 144.518 15.7704 144.707 15.9756C144.912 16.165 145.157 16.3149 145.441 16.4254C145.725 16.5201 146.041 16.5674 146.388 16.5674C146.814 16.5674 147.232 16.4964 147.643 16.3544C148.053 16.1965 148.455 15.944 148.85 15.5968C149.26 15.2496 149.647 14.7998 150.01 14.2474V16.8515H149.276C149.008 17.2934 148.684 17.6801 148.306 18.0115C147.943 18.3272 147.532 18.5718 147.074 18.7454C146.633 18.9033 146.143 18.9822 145.607 18.9822C145.007 18.9822 144.455 18.8796 143.949 18.6744C143.46 18.4692 143.034 18.1694 142.671 17.7748C142.324 17.3645 142.048 16.8752 141.842 16.307C141.653 15.7388 141.558 15.0917 141.558 14.3657V10.5542C141.558 9.81242 141.653 9.15744 141.842 8.58926C142.048 8.0053 142.324 7.50814 142.671 7.09779C143.034 6.68744 143.468 6.37968 143.973 6.1745C144.478 5.95354 145.038 5.84307 145.654 5.84307ZM151.904 0.989877C151.967 0.989877 152.014 1.00566 152.046 1.03723C152.078 1.05301 152.101 1.07668 152.117 1.10825C152.149 1.13981 152.164 1.18716 152.164 1.25029C152.164 2.44978 152.164 3.67294 152.164 4.91978C152.164 6.15083 152.164 7.38188 152.164 8.61293C152.164 9.84399 152.164 11.0593 152.164 12.2587C152.164 13.4424 152.164 14.5946 152.164 15.7152C152.164 16.2833 152.164 16.82 152.164 17.325C152.164 17.83 152.164 18.3035 152.164 18.7454C151.991 18.7454 151.809 18.7454 151.62 18.7454C151.431 18.7454 151.241 18.7454 151.052 18.7454C150.862 18.7454 150.673 18.7454 150.484 18.7454C150.294 18.7454 150.105 18.7454 149.915 18.7454C149.868 18.7454 149.821 18.7376 149.773 18.7218C149.742 18.6902 149.71 18.6586 149.679 18.6271C149.663 18.5955 149.655 18.5482 149.655 18.485C149.655 17.2224 149.655 15.9598 149.655 14.6972C149.655 13.4346 149.655 12.1798 149.655 10.933C149.655 9.67038 149.655 8.40776 149.655 7.14514C149.655 5.88252 149.655 4.6199 149.655 3.35729C149.655 2.96272 149.655 2.56815 149.655 2.17358C149.655 1.77901 149.655 1.38445 149.655 0.989877C149.844 0.989877 150.034 0.989877 150.223 0.989877C150.413 0.989877 150.602 0.989877 150.791 0.989877C150.981 0.989877 151.17 0.989877 151.359 0.989877C151.549 0.989877 151.73 0.989877 151.904 0.989877Z" fill="black"/>
<path d="M161.388 5.84307C162.382 5.84307 163.266 6.04824 164.04 6.45859C164.829 6.85316 165.452 7.44501 165.91 8.23415C166.368 9.0075 166.596 9.97814 166.596 11.1461V12.969C166.596 13.0163 166.581 13.0637 166.549 13.111C166.533 13.1426 166.51 13.1663 166.478 13.182C166.446 13.1978 166.399 13.2057 166.336 13.2057H160.417C160.165 13.2057 159.904 13.2057 159.636 13.2057C159.368 13.2057 159.1 13.2057 158.831 13.2057H158.026L157.813 11.5248H164.134C164.134 11.4459 164.134 11.3749 164.134 11.3118C164.134 11.2329 164.134 11.1618 164.134 11.0987C164.134 10.5305 164.071 10.0413 163.945 9.63092C163.834 9.22057 163.645 8.89702 163.377 8.66028C163.156 8.42354 162.88 8.25782 162.548 8.16313C162.217 8.05265 161.83 7.99741 161.388 7.99741C160.457 7.99741 159.739 8.24204 159.234 8.7313C158.744 9.22057 158.5 10.0255 158.5 11.1461V13.7502C158.5 14.2237 158.563 14.6419 158.689 15.0049C158.815 15.3679 158.997 15.6757 159.234 15.9282C159.534 16.2281 159.92 16.4491 160.394 16.5911C160.867 16.7331 161.428 16.8042 162.075 16.8042C162.659 16.8042 163.164 16.7726 163.59 16.7095C164.032 16.6463 164.442 16.5595 164.821 16.4491C165.2 16.3228 165.578 16.1729 165.957 15.9992H166.36C166.36 16.2991 166.36 16.6069 166.36 16.9225C166.36 17.2382 166.36 17.5538 166.36 17.8695C166.36 17.9011 166.352 17.9326 166.336 17.9642C166.32 17.9958 166.296 18.0273 166.265 18.0589C166.123 18.2009 165.839 18.3509 165.413 18.5087C164.987 18.6507 164.474 18.7691 163.874 18.8638C163.29 18.9585 162.659 19.0059 161.98 19.0059C161.049 19.0059 160.204 18.8954 159.447 18.6744C158.705 18.4377 158.074 18.0984 157.553 17.6564C157.048 17.2145 156.661 16.67 156.393 16.0229C156.125 15.36 155.99 14.6025 155.99 13.7502V11.1934C155.99 10.3254 156.125 9.5599 156.393 8.89702C156.661 8.21837 157.04 7.65808 157.529 7.21616C158.018 6.75846 158.595 6.41913 159.257 6.19818C159.92 5.96144 160.63 5.84307 161.388 5.84307Z" fill="black"/>
<path d="M174.755 16.5438C175.828 16.5438 176.585 16.4017 177.027 16.1176C177.469 15.8177 177.69 15.4469 177.69 15.0049C177.69 14.7524 177.635 14.5315 177.525 14.3421C177.414 14.1527 177.225 13.9948 176.956 13.8686C176.688 13.7265 176.325 13.6161 175.867 13.5371L173.5 13.111C172.727 12.9532 172.087 12.7322 171.582 12.4481C171.093 12.1483 170.73 11.7774 170.493 11.3355C170.257 10.8935 170.138 10.3806 170.138 9.79664C170.138 9.21268 170.257 8.68396 170.493 8.21047C170.746 7.73699 171.109 7.32664 171.582 6.97942C172.056 6.6322 172.64 6.3639 173.334 6.1745C174.029 5.98511 174.834 5.89041 175.749 5.89041C176.301 5.89041 176.799 5.91409 177.24 5.96144C177.682 6.00878 178.069 6.07192 178.4 6.15083C178.732 6.22974 179.008 6.31655 179.229 6.41124C179.34 6.44281 179.411 6.47437 179.442 6.50594C179.489 6.53751 179.513 6.58485 179.513 6.64798C179.529 6.69533 179.537 6.76636 179.537 6.86105C179.537 7.12936 179.537 7.4529 179.537 7.83169C179.537 8.19469 179.537 8.54191 179.537 8.87335H179.158C178.763 8.7313 178.377 8.62082 177.998 8.54191C177.619 8.44722 177.225 8.38408 176.814 8.35252C176.404 8.32095 175.954 8.30517 175.465 8.30517C174.77 8.30517 174.218 8.3683 173.808 8.49456C173.397 8.62082 173.097 8.79444 172.908 9.01539C172.734 9.22057 172.648 9.45731 172.648 9.72562C172.648 9.96236 172.695 10.1675 172.79 10.3411C172.9 10.499 173.082 10.6331 173.334 10.7436C173.603 10.8541 173.973 10.9567 174.447 11.0514L176.767 11.5012C177.477 11.6117 178.085 11.8247 178.59 12.1404C179.095 12.4402 179.482 12.8269 179.75 13.3004C180.034 13.7739 180.176 14.3342 180.176 14.9813C180.176 15.7862 179.963 16.4885 179.537 17.0883C179.111 17.688 178.495 18.1536 177.69 18.485C176.885 18.8007 175.915 18.9585 174.778 18.9585C174.21 18.9585 173.681 18.9348 173.192 18.8875C172.703 18.8401 172.253 18.777 171.843 18.6981C171.448 18.6034 171.093 18.5008 170.777 18.3903C170.462 18.2641 170.186 18.1299 169.949 17.9879C169.886 17.9563 169.838 17.9247 169.807 17.8932C169.791 17.8458 169.783 17.7748 169.783 17.6801C169.783 17.3802 169.783 17.033 169.783 16.6384C169.783 16.2439 169.783 15.8651 169.783 15.5021H170.162C170.509 15.6915 170.848 15.8572 171.18 15.9992C171.527 16.1255 171.882 16.2281 172.245 16.307C172.608 16.3859 172.995 16.4491 173.405 16.4964C173.831 16.528 174.281 16.5438 174.755 16.5438Z" fill="black"/>
</svg>
